<svg width="48" height="47" viewBox="0 0 48 47" fill="none" xmlns="http://www.w3.org/2000/svg">
<path d="M23.96 0C11.05 0 0.549988 10.5 0.549988 23.41C0.549988 36.32 11.05 46.82 23.96 46.82C36.87 46.82 47.37 36.32 47.37 23.41C47.37 10.5 36.87 0 23.96 0ZM30.45 13.89C30.45 14.09 30.29 14.24 30.1 14.24H27.28C26.59 14.24 26.03 14.8 26.03 15.49V18.44H30.03C30.24 18.44 30.4 18.62 30.38 18.82L30.03 22.97C30.01 23.15 29.86 23.29 29.68 23.29H26.03V37.08C26.03 37.28 25.87 37.43 25.68 37.43H20.64C20.44 37.43 20.29 37.27 20.29 37.08V23.29H17.77C17.57 23.29 17.42 23.13 17.42 22.94V18.79C17.42 18.59 17.58 18.44 17.77 18.44H20.29V14.43C20.29 11.64 22.55 9.38 25.34 9.38H30.1C30.3 9.38 30.45 9.54 30.45 9.73V13.88V13.89Z" fill="#28486D"/>
</svg>
