<svg width="47" height="47" viewBox="0 0 47 47" fill="none" xmlns="http://www.w3.org/2000/svg">
<path d="M23.26 46.51C10.43 46.51 0 36.08 0 23.26C0 10.44 10.43 0 23.26 0C36.09 0 46.52 10.43 46.52 23.26C46.52 36.09 36.09 46.52 23.26 46.52V46.51ZM31.1 13.82C30.15 13.82 29.38 14.59 29.38 15.54C29.38 16.49 30.15 17.26 31.1 17.26C32.05 17.26 32.82 16.49 32.82 15.54C32.82 14.59 32.05 13.82 31.1 13.82ZM23.45 16.03C19.46 16.03 16.22 19.27 16.22 23.26C16.22 27.25 19.46 30.49 23.45 30.49C27.44 30.49 30.68 27.25 30.68 23.26C30.68 19.27 27.44 16.03 23.45 16.03ZM23.45 27.89C20.9 27.89 18.82 25.81 18.82 23.26C18.82 20.71 20.9 18.63 23.45 18.63C26 18.63 28.08 20.71 28.08 23.26C28.08 25.81 26 27.89 23.45 27.89ZM38.03 17.25C38.03 12.38 34.08 8.43 29.21 8.43H17.57C12.7 8.43 8.75 12.38 8.75 17.25V28.89C8.75 33.76 12.7 37.71 17.57 37.71H29.21C34.08 37.71 38.03 33.76 38.03 28.89V17.25ZM35.27 28.89C35.27 32.23 32.56 34.95 29.21 34.95H17.57C14.23 34.95 11.51 32.24 11.51 28.89V17.25C11.51 13.91 14.22 11.19 17.57 11.19H29.21C32.55 11.19 35.27 13.9 35.27 17.25V28.89Z" fill="#28486D"/>
</svg>
