<svg width="48" height="47" viewBox="0 0 48 47" fill="none" xmlns="http://www.w3.org/2000/svg">
<path d="M23.78 0C10.89 0 0.410034 10.48 0.410034 23.37C0.410034 36.26 10.89 46.74 23.78 46.74C36.67 46.74 47.15 36.26 47.15 23.37C47.15 10.48 36.67 0 23.78 0ZM17.94 33.87C17.94 34.09 17.77 34.26 17.55 34.26H13.05C12.83 34.26 12.66 34.09 12.66 33.87V18.75C12.66 18.53 12.83 18.36 13.05 18.36H17.55C17.77 18.36 17.94 18.53 17.94 18.75V33.87ZM15.14 16.35C13.58 16.35 12.31 15.08 12.31 13.52C12.31 11.96 13.58 10.69 15.14 10.69C16.7 10.69 17.97 11.96 17.97 13.52C17.97 15.08 16.7 16.35 15.14 16.35ZM36.99 33.87C36.99 34.09 36.82 34.26 36.6 34.26H32.1C31.88 34.26 31.71 34.09 31.71 33.87V25.76C31.71 23.62 30.95 22.17 29.03 22.17C27.57 22.17 26.7 23.15 26.32 24.1C26.18 24.44 26.14 24.91 26.14 25.39V33.88C26.14 34.1 25.97 34.27 25.75 34.27H21.25C21.03 34.27 20.86 34.1 20.86 33.88C20.87 31.72 20.92 21.23 20.86 18.77C20.86 18.55 21.03 18.37 21.25 18.37H25.74C25.96 18.37 26.13 18.54 26.13 18.76V20.62C26.83 19.54 28.09 17.99 30.89 17.99C34.37 17.99 36.97 20.26 36.97 25.14V33.87H36.99ZM26.11 20.67C26.11 20.67 26.13 20.64 26.14 20.62V20.67H26.11Z" fill="#28486D"/>
</svg>
