<svg width="47" height="47" viewBox="0 0 47 47" fill="none" xmlns="http://www.w3.org/2000/svg">
<path d="M27.37 23.21L21.21 19.86C20.96 19.72 20.09 19.9 20.09 20.19V26.72C20.09 27.01 20.95 27.19 21.2 27.05L27.63 23.87C27.89 23.73 27.63 23.35 27.36 23.21H27.37Z" fill="#28486D"/>
<path d="M23.56 0C10.65 0 0.190002 10.46 0.190002 23.37C0.190002 36.28 10.65 46.74 23.56 46.74C36.47 46.74 46.93 36.28 46.93 23.37C46.93 10.46 36.47 0 23.56 0ZM36.07 26.71C36.07 29.81 33.56 32.32 30.46 32.32H16.11C13.01 32.32 10.5 29.81 10.5 26.71V20.03C10.5 16.93 13.01 14.42 16.11 14.42H30.46C33.56 14.42 36.07 16.93 36.07 20.03V26.71Z" fill="#28486D"/>
</svg>
