<?xml version="1.0" encoding="UTF-8"?>
<svg id="Layer_2" data-name="Layer 2" xmlns="http://www.w3.org/2000/svg" xmlns:xlink="http://www.w3.org/1999/xlink" viewBox="0 0 358.84 89.47">
  <defs>
    <style>
      .cls-1 {
        fill: none;
      }

      .cls-2 {
        fill: url(#linear-gradient);
      }

      .cls-3 {
        fill: #9dc44d;
      }

      .cls-4 {
        fill: #fff;
      }

      .cls-5 {
        clip-path: url(#clippath);
      }
    </style>
    <clipPath id="clippath">
      <path class="cls-1" d="M53.18,0L16.94,78.55c-3.24,7.03-9.75,10.67-16.36,10.92h35.64L72.48,10.89C75.64,4.05,81.88.42,88.32,0h-35.14Z"/>
    </clipPath>
    <linearGradient id="linear-gradient" x1="-1356.97" y1="6683.61" x2="-1355.97" y2="6683.61" gradientTransform="translate(-615330.86 124930.38) rotate(90) scale(92.07 -92.07)" gradientUnits="userSpaceOnUse">
      <stop offset="0" stop-color="#e2e0dd"/>
      <stop offset="0" stop-color="#dbd7d4"/>
      <stop offset=".08" stop-color="#c4c0bf"/>
      <stop offset=".26" stop-color="#89868b"/>
      <stop offset=".26" stop-color="#88858a"/>
      <stop offset=".32" stop-color="#979599"/>
      <stop offset=".42" stop-color="#c1c0c2"/>
      <stop offset=".52" stop-color="#f2f3f3"/>
      <stop offset=".72" stop-color="#b3b1b4"/>
      <stop offset=".88" stop-color="#7e7a7f"/>
      <stop offset=".91" stop-color="#8d8a8e"/>
      <stop offset=".96" stop-color="#b4b4b6"/>
      <stop offset="1" stop-color="#cfd1d2"/>
      <stop offset="1" stop-color="#a5a6a9"/>
    </linearGradient>
  </defs>
  <g id="OBJECTS">
    <g>
      <g class="cls-5">
        <rect class="cls-2" x=".57" y="0" width="87.75" height="89.47"/>
      </g>
      <polygon class="cls-4" points="29.25 0 0 0 0 63.39 29.25 0"/>
      <polygon class="cls-3" points="60.15 89.47 89.47 89.47 89.47 25.94 60.15 89.47"/>
      <g>
        <path class="cls-4" d="M113.69,84.18c1.19.13,1.9,1.15,1.9,2.25,0,1.17-.74,2.23-2.13,2.23h-3.58v-7.04h2.77c.87,0,1.56.62,1.56,1.43,0,.41-.16.87-.52,1.14M110.7,84.1h1.92c.6,0,.82-.5.82-.87,0-.51-.44-.89-1.06-.89h-1.68v1.76ZM113.06,87.92c1.11,0,1.64-.72,1.64-1.58,0-.8-.54-1.6-1.63-1.6h-2.35v3.17h2.35Z"/>
        <path class="cls-4" d="M124.98,85.14c0,1.97-1.66,3.57-3.72,3.57s-3.71-1.61-3.71-3.57,1.67-3.57,3.71-3.57,3.72,1.61,3.72,3.57M124.1,85.14c0-1.54-1.27-2.78-2.85-2.78s-2.84,1.25-2.84,2.78,1.28,2.79,2.84,2.79,2.85-1.25,2.85-2.79"/>
        <polygon class="cls-4" points="132.11 87.94 132.11 88.65 127.35 88.65 127.35 81.62 128.21 81.62 128.21 87.94 132.11 87.94"/>
        <path class="cls-4" d="M139.37,86.74c0,1.26-1.04,2-2.6,2-1.15,0-1.67-.09-2.79-.65l.32-.66c1,.49,1.53.57,2.49.57,1.04,0,1.71-.44,1.71-1.2s-.75-1.03-1.85-1.29c-1.43-.34-2.61-.71-2.61-2.01,0-1.14.94-1.95,2.48-1.95.93,0,1.92.24,2.57.55l-.36.68c-.6-.29-1.53-.49-2.21-.49-1.01,0-1.61.48-1.61,1.16,0,.74.8,1.02,1.97,1.3,1.42.33,2.5.76,2.5,1.99"/>
        <path class="cls-4" d="M146.21,86.89h-3.62l-.78,1.77h-.9l3.25-7.04h.47l3.26,7.04h-.9l-.79-1.77ZM142.9,86.19h3l-1.51-3.4-1.5,3.4Z"/>
        <path class="cls-4" d="M156.81,88.65h-2.67v-7.04h2.45c1.96,0,3.54,1.58,3.54,3.52s-1.47,3.51-3.31,3.51M156.74,87.88c1.39,0,2.53-1.29,2.53-2.74s-1.21-2.76-2.69-2.76h-1.62v5.5h1.78Z"/>
        <polygon class="cls-4" points="167.58 87.92 167.58 88.65 162.49 88.65 162.49 81.62 167.37 81.62 167.37 82.34 163.32 82.34 163.32 84.88 166.75 84.88 166.75 85.6 163.32 85.6 163.32 87.92 167.58 87.92"/>
        <path class="cls-4" d="M176.8,88.65h-2.67v-7.04h2.45c1.96,0,3.54,1.58,3.54,3.52s-1.47,3.51-3.31,3.51M176.74,87.88c1.39,0,2.53-1.29,2.53-2.74s-1.21-2.76-2.69-2.76h-1.62v5.5h1.78Z"/>
        <path class="cls-4" d="M183.36,88.65h-.87v-7.04h.87v7.04ZM183.26,80.99h-.58l1.39-1.64.93.07-1.74,1.57Z"/>
        <polygon class="cls-4" points="191.59 81.62 192.53 81.62 189.25 88.65 188.82 88.65 185.55 81.62 186.48 81.62 189.03 87.25 191.59 81.62"/>
        <rect class="cls-4" x="194.66" y="81.62" width=".87" height="7.04"/>
        <path class="cls-4" d="M200.91,88.65h-2.67v-7.04h2.44c1.96,0,3.54,1.58,3.54,3.52s-1.47,3.51-3.31,3.51M200.84,87.88c1.39,0,2.53-1.29,2.53-2.74s-1.21-2.76-2.69-2.76h-1.62v5.5h1.78Z"/>
        <path class="cls-4" d="M210.73,86.89h-3.62l-.78,1.77h-.9l3.25-7.04h.47l3.26,7.04h-.9l-.79-1.77ZM207.42,86.19h3l-1.51-3.4-1.5,3.4Z"/>
        <polygon class="cls-4" points="223.75 87.92 223.75 88.65 218.66 88.65 218.66 81.62 223.54 81.62 223.54 82.34 219.49 82.34 219.49 84.88 222.93 84.88 222.93 85.6 219.49 85.6 219.49 87.92 223.75 87.92"/>
        <polygon class="cls-4" points="235.82 81.62 236.76 81.62 233.49 88.65 233.06 88.65 229.78 81.62 230.71 81.62 233.27 87.25 235.82 81.62"/>
        <path class="cls-4" d="M242.53,86.89h-3.62l-.78,1.77h-.9l3.25-7.04h.47l3.26,7.04h-.9l-.79-1.77ZM239.22,86.19h3l-1.51-3.4-1.5,3.4Z"/>
        <polygon class="cls-4" points="251.01 87.94 251.01 88.65 246.24 88.65 246.24 81.62 247.1 81.62 247.1 87.94 251.01 87.94"/>
        <path class="cls-4" d="M259.93,85.14c0,1.97-1.66,3.57-3.72,3.57s-3.71-1.61-3.71-3.57,1.67-3.57,3.71-3.57,3.72,1.61,3.72,3.57M259.05,85.14c0-1.54-1.27-2.78-2.85-2.78s-2.84,1.25-2.84,2.78,1.28,2.79,2.84,2.79,2.85-1.25,2.85-2.79"/>
        <path class="cls-4" d="M265.35,86.48c-.15,0-.31.02-.47.02h-1.72v2.16h-.86v-7.04h2.88c1.93,0,2.59,1.14,2.59,2.38s-.58,2.01-1.57,2.32l1.78,2.35h-1.04l-1.6-2.18ZM263.17,85.79h1.69c1.28,0,2.04-.58,2.04-1.75,0-.88-.47-1.7-1.81-1.7h-1.92v3.44Z"/>
        <polygon class="cls-4" points="275.22 87.92 275.22 88.65 270.13 88.65 270.13 81.62 275.01 81.62 275.01 82.34 270.96 82.34 270.96 84.88 274.39 84.88 274.39 85.6 270.96 85.6 270.96 87.92 275.22 87.92"/>
        <path class="cls-4" d="M282.6,86.74c0,1.26-1.04,2-2.6,2-1.15,0-1.67-.09-2.79-.65l.32-.66c1,.49,1.53.57,2.49.57,1.04,0,1.71-.44,1.71-1.2s-.75-1.03-1.85-1.29c-1.43-.34-2.6-.71-2.6-2.01,0-1.14.94-1.95,2.47-1.95.93,0,1.92.24,2.57.55l-.36.68c-.6-.29-1.53-.49-2.21-.49-1.01,0-1.61.48-1.61,1.16,0,.74.8,1.02,1.97,1.3,1.42.33,2.5.76,2.5,1.99"/>
        <path class="cls-4" d="M291.83,88.65h-2.67v-7.04h2.45c1.96,0,3.54,1.58,3.54,3.52s-1.47,3.51-3.32,3.51M291.76,87.88c1.39,0,2.53-1.29,2.53-2.74s-1.21-2.76-2.7-2.76h-1.62v5.5h1.78Z"/>
        <polygon class="cls-4" points="302.61 87.92 302.61 88.65 297.51 88.65 297.51 81.62 302.4 81.62 302.4 82.34 298.34 82.34 298.34 84.88 301.78 84.88 301.78 85.6 298.34 85.6 298.34 87.92 302.61 87.92"/>
        <path class="cls-4" d="M313.79,86.89h-3.62l-.78,1.77h-.9l3.25-7.04h.47l3.26,7.04h-.9l-.79-1.77ZM310.48,86.19h3l-1.51-3.4-1.5,3.4Z"/>
        <polygon class="cls-4" points="323.53 81.62 323.53 88.65 323.08 88.65 318.37 83.22 318.37 88.65 317.51 88.65 317.51 81.62 317.96 81.62 322.68 87.05 322.68 81.62 323.53 81.62"/>
        <path class="cls-4" d="M332.66,85.28v2.41c-.78.63-1.86,1.03-3.04,1.03-2.06,0-3.72-1.61-3.72-3.57s1.67-3.57,3.72-3.57c1.16,0,2.12.39,2.78,1.01l-.54.59c-.55-.5-1.33-.81-2.25-.81-1.58,0-2.85,1.25-2.85,2.79s1.28,2.81,2.85,2.81c.86,0,1.61-.26,2.19-.69v-1.28h-2.36v-.71h3.21Z"/>
        <path class="cls-4" d="M342.13,85.14c0,1.97-1.66,3.57-3.72,3.57s-3.71-1.61-3.71-3.57,1.67-3.57,3.71-3.57,3.72,1.61,3.72,3.57M341.25,85.14c0-1.54-1.27-2.78-2.85-2.78s-2.84,1.25-2.84,2.78,1.28,2.79,2.84,2.79,2.85-1.25,2.85-2.79"/>
        <polygon class="cls-4" points="349.26 87.94 349.26 88.65 344.5 88.65 344.5 81.62 345.36 81.62 345.36 87.94 349.26 87.94"/>
        <path class="cls-4" d="M356.12,86.89h-3.62l-.78,1.77h-.9l3.25-7.04h.47l3.26,7.04h-.9l-.79-1.77ZM352.81,86.19h3l-1.51-3.4-1.5,3.4Z"/>
        <path class="cls-4" d="M135.38,41.98c7.08.95,12.01,7.02,12.01,14.03,0,7.4-4.68,14.1-13.46,14.1h-24.53V30.11c0-2.52,2.05-4.57,4.57-4.57h15.03c5.31,0,9.67,4.36,9.67,9.86,0,2.53-1.2,5.31-3.29,6.57M118.18,41.1h8.15c3.03,0,4.24-2.02,4.24-3.86,0-2.15-1.77-3.86-4.93-3.86h-7.46v7.71ZM128.99,62.27c6.26,0,8.85-3.03,8.85-7.21,0-3.6-2.65-7.27-8.79-7.27h-10.81v14.48h10.75Z"/>
        <path class="cls-4" d="M198.32,47.86c0,12.58-10.56,22.76-23.7,22.76s-23.71-10.18-23.71-22.76,10.62-22.76,23.71-22.76,23.7,10.18,23.7,22.76M189.09,47.86c0-7.84-6.51-14.29-14.48-14.29s-14.41,6.45-14.41,14.29,6.45,14.29,14.41,14.29,14.48-6.39,14.48-14.29"/>
        <path class="cls-4" d="M223.73,70.11h-19.09V30.08c0-2.51,2.03-4.54,4.54-4.54h13.1c12.39,0,22.44,9.99,22.44,22.31s-9.29,22.25-20.99,22.25M222.98,61.83c7.08,0,12.83-6.51,12.83-13.97s-6.07-14.03-13.53-14.03h-8.85v28h9.55Z"/>
        <rect class="cls-4" x="251.38" y="25.55" width="9.1" height="44.57"/>
        <path class="cls-4" d="M306.88,25.49l-14.08,30.63c-.26.55-1.04.56-1.3,0l-14.21-30.63h-10.21l18.98,40.88c2.41,5.16,9.75,5.14,12.13-.03l18.9-40.85h-10.21Z"/>
        <path class="cls-3" d="M319.05,70.08l14.07-30.63c.26-.55,1.04-.56,1.3,0l14.21,30.63h10.21l-18.98-40.88c-2.41-5.16-9.75-5.14-12.13.03l-18.9,40.85h10.21Z"/>
      </g>
    </g>
  </g>
</svg>