<?xml version="1.0" encoding="UTF-8"?>
<svg xmlns="http://www.w3.org/2000/svg" width="1726.01" height="812.8" xmlns:xlink="http://www.w3.org/1999/xlink" viewBox="0 0 1726.01 812.8">
  <defs>
    <radialGradient id="radial-gradient" cx="863.01" cy="406.4" fx="863.01" fy="406.4" r="674.51" gradientUnits="userSpaceOnUse">
      <stop offset="0" stop-color="#496ec1" stop-opacity="0"/>
      <stop offset=".69" stop-color="#345489" stop-opacity=".72"/>
      <stop offset="1" stop-color="#2c4b73"/>
    </radialGradient>
  </defs>
  <g isolation="isolate">
    <g id="Layer_2" data-name="Layer 2">
      <g id="OBJECTS">
        <path d="M1.38,140.18c15.94-.39,31.61-6.08,39.43-17.07L128.15.33h84.66c-15.51.65-30.56,6.33-38.17,17.03l-87.37,122.83H1.38M0,.32v99.09L70.49.32H0ZM256.39,17.18l87.34,122.79h84.66c-15.51-.65-30.56-6.33-38.17-17.03L302.84.11h-85.89c15.94.39,31.61,6.08,39.43,17.07M286.05,139.95l-70.48-99.08h0s0,0,0,0h0s0,0,0,0l-70.48,99.08h140.95ZM431.15,99.2L501.56.2h-140.99l70.57,99.22v-.22ZM432.94,140.08h85.89l87.37-122.83c7.61-10.7,22.67-16.38,38.17-17.03h-84.66l-87.34,122.79c-7.82,10.99-23.49,16.68-39.43,17.07M687.95,17.07l87.34,122.79h84.66c-15.51-.65-30.56-6.33-38.17-17.03L734.41,0h-85.89c15.94.39,31.61,6.08,39.43,17.07M717.61,139.85l-70.47-99.08h0s0,0,0,0h0s0,0,0,0l-70.48,99.08h140.95ZM40.81,290.51c-7.82,10.99-23.49,16.68-39.43,17.07h85.89l87.37-122.83c7.61-10.7,22.67-16.38,38.17-17.03h-84.66l-87.34,122.79ZM0,167.72v99.09l70.49-99.09H0ZM216.95,167.5c15.94.39,31.61,6.08,39.43,17.07l87.34,122.79h84.66c-15.51-.65-30.56-6.33-38.17-17.03l-87.37-122.83h-85.89ZM215.58,208.27h0s0,0,0,0l-70.48,99.08h140.95l-70.48-99.08h0s0,0,0,0ZM431.15,266.81v-.22l70.41-99h-140.99l70.57,99.22ZM472.38,290.4c-7.82,10.99-23.49,16.68-39.43,17.07h85.89l87.37-122.83c7.61-10.7,22.67-16.38,38.17-17.03h-84.66l-87.34,122.79ZM648.52,167.39c15.94.39,31.61,6.08,39.43,17.07l87.34,122.79h84.66c-15.51-.65-30.56-6.33-38.17-17.03l-87.37-122.83h-85.89ZM647.14,208.16h0s0,0,0,0l-70.48,99.08h140.95l-70.47-99.08h0s0,0,0,0ZM1.38,475.98h85.89l87.37-122.83c7.61-10.7,22.67-16.38,38.17-17.03h-84.66l-87.34,122.79c-7.82,10.99-23.49,16.68-39.43,17.07M0,336.13v99.09l70.49-99.09H0ZM428.38,475.77c-15.51-.65-30.56-6.33-38.17-17.03l-87.37-122.83h-85.89c15.94.39,31.61,6.08,39.43,17.07l87.34,122.79h84.66ZM215.58,376.67h0s-70.48,99.08-70.48,99.08h140.95l-70.48-99.08h0s0,0,0,0ZM431.15,435l70.41-99h-140.99l70.57,99.22v-.22ZM606.2,353.05c7.61-10.7,22.67-16.38,38.17-17.03h-84.66l-87.34,122.79c-7.82,10.99-23.49,16.69-39.43,17.07h85.89l87.37-122.83ZM859.95,475.66c-15.51-.65-30.56-6.33-38.17-17.03l-87.37-122.83h-85.89c15.94.39,31.61,6.08,39.43,17.07l87.34,122.79h84.66ZM647.14,376.57h0s0,0,0,0h0s0,0,0,0l-70.48,99.08h140.95l-70.47-99.08ZM1.38,644.39h85.89l87.37-122.83c7.61-10.7,22.67-16.38,38.17-17.03h-84.66l-87.34,122.79c-7.82,10.99-23.49,16.68-39.43,17.07M0,504.53v99.09l70.49-99.09H0ZM428.38,644.18c-15.51-.65-30.56-6.33-38.17-17.03l-87.37-122.83h-85.89c15.94.39,31.61,6.08,39.43,17.07l87.34,122.79h84.66ZM215.58,545.09h0s0,0,0,0h0s-70.48,99.08-70.48,99.08h140.95l-70.48-99.08ZM431.15,603.41l70.41-99h-140.99l70.57,99.22v-.22ZM606.2,521.46c7.61-10.7,22.67-16.38,38.17-17.03h-84.66l-87.34,122.79c-7.82,10.99-23.49,16.68-39.43,17.07h85.89l87.37-122.83ZM859.95,644.07c-15.51-.65-30.56-6.33-38.17-17.03l-87.37-122.83h-85.89c15.94.39,31.61,6.08,39.43,17.07l87.34,122.79h84.66ZM647.14,544.98h0s0,0,0,0h0s0,0,0,0l-70.48,99.08h140.95l-70.47-99.08ZM212.81,672.94h-84.66l-87.34,122.79c-7.82,10.99-23.49,16.68-39.43,17.07h85.89l87.37-122.83c7.61-10.7,22.67-16.38,38.17-17.03M0,672.94v99.09l70.49-99.09H0ZM863.1,771.76l70.29-98.82h-140.77l70.29,98.82v.28l.1-.14.1.14v-.28ZM390.21,795.56l-87.37-122.83h-85.89c15.94.39,31.61,6.08,39.43,17.07l87.34,122.79h84.66c-15.51-.65-30.56-6.33-38.17-17.03M215.58,713.49h0s0,0,0,0h0s-70.48,99.08-70.48,99.08h140.95l-70.48-99.08h0ZM360.58,672.82l70.57,99.22v-.22l70.41-99h-140.99ZM644.37,672.84h-84.66l-87.34,122.79c-7.82,10.99-23.49,16.68-39.43,17.07h85.89l87.37-122.83c7.61-10.7,22.67-16.38,38.17-17.03M821.77,795.45l-87.37-122.83h-85.89c15.94.39,31.61,6.08,39.43,17.07l87.34,122.79h84.66c-15.51-.65-30.56-6.33-38.17-17.03M647.14,713.38h0s-70.48,99.08-70.48,99.08h140.95l-70.47-99.08h0ZM864.29,140.18h85.89l87.37-122.83c7.61-10.7,22.66-16.38,38.17-17.03h-84.66l-87.34,122.79c-7.82,10.99-23.49,16.68-39.43,17.07M862.91,99.42l.1-.14.1.14v-.28L933.39.33h-140.77l70.29,98.82v.28ZM1655.52.32l70.49,99.09V.32h-70.49ZM1119.29,17.18l87.34,122.79h84.66c-15.51-.65-30.56-6.33-38.17-17.03L1165.75.11h-85.89c15.95.39,31.62,6.08,39.43,17.07M1148.95,139.95l-70.47-99.08h0s0,0,0,0h0s0,0,0,0l-70.48,99.08h140.95ZM1294.06,99.2L1364.47.2h-140.99l70.58,99.22v-.22ZM1295.85,140.08h85.89l87.37-122.83c7.61-10.7,22.67-16.38,38.17-17.03h-84.66l-87.34,122.79c-7.82,10.99-23.49,16.68-39.43,17.07M1550.85,17.07l87.34,122.79h84.66c-15.51-.65-30.56-6.33-38.17-17.03L1597.31,0h-85.89c15.94.39,31.61,6.08,39.43,17.07M1580.52,139.85l-70.48-99.08h0s0,0,0,0h0s0,0,0,0l-70.48,99.08h140.95ZM903.72,290.51c-7.82,10.99-23.49,16.68-39.43,17.07h85.89l87.37-122.83c7.61-10.7,22.66-16.38,38.17-17.03h-84.66l-87.34,122.79ZM862.91,167.72h-70.29l70.29,98.82v.28l.1-.14.1.14v-.28l70.29-98.82h-70.48ZM1726.01,266.81v-99.09h-70.49l70.49,99.09ZM1079.86,167.5c15.95.39,31.62,6.08,39.43,17.07l87.34,122.79h84.66c-15.51-.65-30.56-6.33-38.17-17.03l-87.36-122.83h-85.89ZM1078.48,208.27h0s0,0,0,0l-70.48,99.08h140.95l-70.47-99.08h0s0,0,0,0ZM1294.06,266.81v-.22l70.41-99h-140.99l70.58,99.22ZM1335.28,290.4c-7.82,10.99-23.49,16.68-39.43,17.07h85.89l87.37-122.83c7.61-10.7,22.67-16.38,38.17-17.03h-84.66l-87.34,122.79ZM1684.68,290.22l-87.37-122.83h-85.89c15.94.39,31.61,6.08,39.43,17.07l87.34,122.79h84.66c-15.51-.65-30.56-6.33-38.17-17.03M1510.04,208.16h0s0,0,0,0l-70.48,99.08h140.95l-70.48-99.08h0s0,0,0,0ZM1037.54,353.16c7.61-10.7,22.66-16.38,38.17-17.03h-84.66l-87.34,122.79c-7.82,10.99-23.49,16.68-39.43,17.07h85.89l87.37-122.83ZM863.01,435.08l.1.14v-.28l70.29-98.82h-140.77l70.29,98.82v.28l.1-.14ZM1726.01,435.22v-99.09h-70.49l70.49,99.09ZM1291.29,475.77c-15.51-.65-30.56-6.33-38.17-17.03l-87.36-122.83h-85.89c15.95.39,31.62,6.08,39.43,17.07l87.34,122.79h84.66ZM1078.48,376.68h0s0,0,0,0h0s-70.48,99.08-70.48,99.08h140.95l-70.47-99.08ZM1294.06,435l70.41-99h-140.99l70.58,99.22v-.22ZM1469.11,353.05c7.61-10.7,22.67-16.38,38.17-17.03h-84.66l-87.34,122.79c-7.82,10.99-23.49,16.69-39.43,17.07h85.89l87.37-122.83ZM1684.68,458.63l-87.37-122.83h-85.89c15.94.39,31.61,6.08,39.43,17.07l87.34,122.79h84.66c-15.51-.65-30.56-6.33-38.17-17.03M1510.04,376.57h0s0,0,0,0l-70.48,99.08h140.95l-70.48-99.08h0s0,0,0,0ZM1037.54,521.56c7.61-10.7,22.66-16.38,38.17-17.03h-84.66l-87.34,122.79c-7.82,10.99-23.49,16.68-39.43,17.07h85.89l87.37-122.83ZM863.01,603.49l.1.14v-.28l70.29-98.82h-140.77l70.29,98.82v.28l.1-.14ZM1726.01,603.63v-99.09h-70.49l70.49,99.09ZM1291.29,644.18c-15.51-.65-30.56-6.33-38.17-17.03l-87.36-122.83h-85.89c15.95.39,31.62,6.08,39.43,17.07l87.34,122.79h84.66ZM1078.48,545.09h0s0,0,0,0h0s-70.48,99.08-70.48,99.08h140.95l-70.47-99.08ZM1294.06,603.41l70.41-99h-140.99l70.58,99.22v-.22ZM1469.11,521.46c7.61-10.7,22.67-16.38,38.17-17.03h-84.66l-87.34,122.79c-7.82,10.99-23.49,16.68-39.43,17.07h85.89l87.37-122.83ZM1722.85,644.07c-15.51-.65-30.56-6.33-38.17-17.03l-87.37-122.83h-85.89c15.94.39,31.61,6.08,39.43,17.07l87.34,122.79h84.66ZM1510.04,544.98h0s0,0,0,0h0s0,0,0,0l-70.48,99.08h140.95l-70.48-99.08ZM1075.72,672.94h-84.66l-87.34,122.79c-7.82,10.99-23.49,16.68-39.43,17.07h85.89l87.37-122.83c7.61-10.7,22.66-16.38,38.17-17.03M1726.01,772.04v-99.09h-70.49l70.49,99.09ZM1253.12,795.56l-87.37-122.83h-85.89c15.95.39,31.62,6.08,39.43,17.07l87.34,122.79h84.66c-15.51-.65-30.56-6.33-38.17-17.03M1078.48,713.49h0s0,0,0,0h0s-70.48,99.08-70.48,99.08h140.95l-70.47-99.08h0ZM1223.48,672.82l70.58,99.22v-.22l70.41-99h-140.99ZM1507.28,672.84h-84.66l-87.34,122.79c-7.82,10.99-23.49,16.68-39.43,17.07h85.89l87.37-122.83c7.61-10.7,22.67-16.38,38.17-17.03M1684.68,795.45l-87.37-122.83h-85.89c15.94.39,31.61,6.08,39.43,17.07l87.34,122.79h84.66c-15.51-.65-30.56-6.33-38.17-17.03M1510.04,713.38h0s-70.48,99.08-70.48,99.08h140.95l-70.48-99.08h0Z" fill="url(#radial-gradient)" mix-blend-mode="multiply" opacity=".54"/>
      </g>
    </g>
  </g>
</svg>